<svg width="309" height="45" viewBox="0 0 309 45" fill="none" xmlns="http://www.w3.org/2000/svg">
<path d="M10.3564 22.6719V44H7.57324V22.6719H10.3564ZM17.2119 22.6719V24.9863H0.732422V22.6719H17.2119ZM34.3066 31.8418V34.1416H22.7637V31.8418H34.3066ZM23.2031 22.6719V44H20.376V22.6719H23.2031ZM36.7676 22.6719V44H33.9551V22.6719H36.7676ZM55.3418 41.7002V44H44.0479V41.7002H55.3418ZM44.6191 22.6719V44H41.792V22.6719H44.6191ZM53.8477 31.8418V34.1416H44.0479V31.8418H53.8477ZM55.1953 22.6719V24.9863H44.0479V22.6719H55.1953ZM91.9336 27.2715H80.5371V22.6719H91.9336C94.1406 22.6719 95.9277 22.3203 97.2949 21.6172C98.6621 20.9141 99.6582 19.9375 100.283 18.6875C100.928 17.4375 101.25 16.0117 101.25 14.4102C101.25 12.9453 100.928 11.5684 100.283 10.2793C99.6582 8.99023 98.6621 7.95508 97.2949 7.17383C95.9277 6.37305 94.1406 5.97266 91.9336 5.97266H81.8555V44H76.2012V1.34375H91.9336C95.1562 1.34375 97.8809 1.90039 100.107 3.01367C102.334 4.12695 104.023 5.66992 105.176 7.64258C106.328 9.5957 106.904 11.832 106.904 14.3516C106.904 17.0859 106.328 19.4199 105.176 21.3535C104.023 23.2871 102.334 24.7617 100.107 25.7773C97.8809 26.7734 95.1562 27.2715 91.9336 27.2715ZM139.922 39.4004V44H118.594V39.4004H139.922ZM119.707 1.34375V44H114.053V1.34375H119.707ZM162.773 5.12305L148.652 44H142.881L159.141 1.34375H162.861L162.773 5.12305ZM174.609 44L160.459 5.12305L160.371 1.34375H164.092L180.41 44H174.609ZM173.877 28.209V32.8379H149.912V28.209H173.877ZM198.076 1.34375V44H192.51V1.34375H198.076ZM211.787 1.34375V5.97266H178.828V1.34375H211.787ZM224.18 1.34375V44H218.525V1.34375H224.18ZM267.275 1.34375V44H261.592L240.117 11.0996V44H234.463V1.34375H240.117L261.68 34.332V1.34375H267.275ZM308.818 22.7598V38.375C308.291 39.1562 307.451 40.0352 306.299 41.0117C305.146 41.9688 303.555 42.8086 301.523 43.5312C299.512 44.2344 296.914 44.5859 293.73 44.5859C291.133 44.5859 288.74 44.1367 286.553 43.2383C284.385 42.3203 282.5 40.9922 280.898 39.2539C279.316 37.4961 278.086 35.3672 277.207 32.8672C276.348 30.3477 275.918 27.4961 275.918 24.3125V21.002C275.918 17.8184 276.289 14.9766 277.031 12.4766C277.793 9.97656 278.906 7.85742 280.371 6.11914C281.836 4.36133 283.633 3.0332 285.762 2.13477C287.891 1.2168 290.332 0.757812 293.086 0.757812C296.348 0.757812 299.072 1.32422 301.26 2.45703C303.467 3.57031 305.186 5.11328 306.416 7.08594C307.666 9.05859 308.467 11.3047 308.818 13.8242H303.164C302.91 12.2812 302.402 10.875 301.641 9.60547C300.898 8.33594 299.834 7.32031 298.447 6.55859C297.061 5.77734 295.273 5.38672 293.086 5.38672C291.113 5.38672 289.404 5.74805 287.959 6.4707C286.514 7.19336 285.322 8.22852 284.385 9.57617C283.447 10.9238 282.744 12.5547 282.275 14.4688C281.826 16.3828 281.602 18.541 281.602 20.9434V24.3125C281.602 26.7734 281.885 28.9707 282.451 30.9043C283.037 32.8379 283.867 34.4883 284.941 35.8555C286.016 37.2031 287.295 38.2285 288.779 38.9316C290.283 39.6348 291.943 39.9863 293.76 39.9863C295.771 39.9863 297.402 39.8203 298.652 39.4883C299.902 39.1367 300.879 38.7266 301.582 38.2578C302.285 37.7695 302.822 37.3105 303.193 36.8809V27.3301H293.32V22.7598H308.818Z" fill="black"/>
</svg>
